<svg version="1.0" xmlns="http://www.w3.org/2000/svg" viewBox="0 0 980 980">
<g transform="translate(0.000000,980.000000) scale(0.100000,-0.100000)" stroke="none">
<path d="M4560 9789 c-1035 -75 -1992 -461 -2800 -1127 -148 -122 -500 -474
-622 -622 -534 -647 -880 -1372 -1042 -2180 -259 -1290 18 -2648 761 -3727
277 -403 628 -778 1018 -1087 680 -539 1533 -896 2400 -1005 1374 -174 2726
225 3790 1118 120 101 395 371 509 501 1015 1154 1430 2698 1130 4200 -162
817 -518 1553 -1068 2210 -109 130 -386 409 -531 535 -766 663 -1683 1060
-2705 1170 -174 19 -664 27 -840 14z m635 -489 c593 -44 1117 -184 1640 -440
1171 -573 2033 -1639 2344 -2900 79 -317 118 -606 128 -945 31 -1075 -337
-2118 -1046 -2960 -78 -92 -379 -405 -391 -405 -3 0 -16 46 -29 103 -156 705
-655 1352 -1292 1677 -227 116 -463 192 -699 225 -154 22 -1746 22 -1898 0
-716 -102 -1364 -566 -1745 -1250 -106 -190 -200 -436 -248 -653 -13 -56 -26
-102 -29 -102 -14 0 -320 321 -411 430 -237 285 -414 557 -578 890 -829 1681
-494 3704 834 5035 760 763 1741 1214 2810 1294 162 12 450 12 610 1z"/>
<path d="M4690 7589 c-416 -53 -808 -260 -1075 -566 -542 -619 -578 -1518 -88
-2170 254 -338 612 -564 1038 -655 97 -20 137 -23 335 -23 196 0 239 3 334 23
477 101 875 378 1128 784 350 563 338 1299 -31 1850 -280 419 -709 688 -1201
754 -114 15 -336 17 -440 3z"/>
</g>
</svg>
